<svg id="visual" viewBox="0 0 900 600" width="900" height="600" xmlns="http://www.w3.org/2000/svg" xmlns:xlink="http://www.w3.org/1999/xlink" version="1.1"><path d="M0 229L18.8 219C37.7 209 75.3 189 112.8 191C150.3 193 187.7 217 225.2 215C262.7 213 300.3 185 337.8 166C375.3 147 412.7 137 450.2 152C487.7 167 525.3 207 562.8 218C600.3 229 637.7 211 675.2 213C712.7 215 750.3 237 787.8 243C825.3 249 862.7 239 881.3 234L900 229L900 0L881.3 0C862.7 0 825.3 0 787.8 0C750.3 0 712.7 0 675.2 0C637.7 0 600.3 0 562.8 0C525.3 0 487.7 0 450.2 0C412.7 0 375.3 0 337.8 0C300.3 0 262.7 0 225.2 0C187.7 0 150.3 0 112.8 0C75.3 0 37.7 0 18.8 0L0 0Z" fill="#353535"></path><path d="M0 349L18.8 330C37.7 311 75.3 273 112.8 269C150.3 265 187.7 295 225.2 301C262.7 307 300.3 289 337.8 272C375.3 255 412.7 239 450.2 248C487.7 257 525.3 291 562.8 297C600.3 303 637.7 281 675.2 282C712.7 283 750.3 307 787.8 321C825.3 335 862.7 339 881.3 341L900 343L900 227L881.3 232C862.7 237 825.3 247 787.8 241C750.3 235 712.7 213 675.2 211C637.7 209 600.3 227 562.8 216C525.3 205 487.7 165 450.2 150C412.7 135 375.3 145 337.8 164C300.3 183 262.7 211 225.2 213C187.7 215 150.3 191 112.8 189C75.3 187 37.7 207 18.8 217L0 227Z" fill="#1e1e1e"></path><path d="M0 469L18.8 447C37.7 425 75.3 381 112.8 372C150.3 363 187.7 389 225.2 392C262.7 395 300.3 375 337.8 366C375.3 357 412.7 359 450.2 375C487.7 391 525.3 421 562.8 430C600.3 439 637.7 427 675.2 422C712.7 417 750.3 419 787.8 423C825.3 427 862.7 433 881.3 436L900 439L900 341L881.3 339C862.7 337 825.3 333 787.8 319C750.3 305 712.7 281 675.2 280C637.7 279 600.3 301 562.8 295C525.3 289 487.7 255 450.2 246C412.7 237 375.3 253 337.8 270C300.3 287 262.7 305 225.2 299C187.7 293 150.3 263 112.8 267C75.3 271 37.7 309 18.8 328L0 347Z" fill="#111111"></path><path d="M0 601L18.8 601C37.7 601 75.3 601 112.8 601C150.3 601 187.7 601 225.2 601C262.7 601 300.3 601 337.8 601C375.3 601 412.7 601 450.2 601C487.7 601 525.3 601 562.8 601C600.3 601 637.7 601 675.2 601C712.7 601 750.3 601 787.8 601C825.3 601 862.7 601 881.3 601L900 601L900 437L881.3 434C862.7 431 825.3 425 787.8 421C750.3 417 712.7 415 675.2 420C637.7 425 600.3 437 562.8 428C525.3 419 487.7 389 450.2 373C412.7 357 375.3 355 337.8 364C300.3 373 262.7 393 225.2 390C187.7 387 150.3 361 112.8 370C75.3 379 37.7 423 18.8 445L0 467Z" fill="#0e0e0e"></path></svg>